# xmcd
#
# Track frame offsets:
#	150
#	7917
#	18034
#	30456
#	39584
#	47499
#	54978
#	66216
#	73758
#	87515
#	101996
#	113979
#	123025
#
# Disc length: 1773 seconds
#
# Revision: 1
# Processed by: cddbd v1.5.2PL0 Copyright (c) Steve Scherf et al.
# Submitted via: audiograbber 1.82.01
#
DISCID=a006eb0d
DTITLE=The Blazin' M Cowboys - Way Out West
DYEAR=2003
DGENRE=Western
TTITLE0=Riding Down To Santa Fe
TTITLE1=Don't Fence Me In
TTITLE2=Lone Prairie
TTITLE3=Pay Day
TTITLE4=Honeysuckle Rose
TTITLE5=Old Time Religion
TTITLE6=I'm My Own Grandpa
TTITLE7=Way Out West
TTITLE8=Home On The Range
TTITLE9=You Are My Sunshine
TTITLE10=Malaguena
TTITLE11=Reincarnation
TTITLE12=God Bless America
EXTD=
EXTT0=
EXTT1=
EXTT2=
EXTT3=
EXTT4=
EXTT5=
EXTT6=
EXTT7=
EXTT8=
EXTT9=
EXTT10=
EXTT11=
EXTT12=
PLAYORDER=
